<svg data-v-0dd9719b="" version="1.0" xmlns="http://www.w3.org/2000/svg" xmlns:xlink="http://www.w3.org/1999/xlink" width="100%" height="100%" viewBox="0 0 340.000000 250.000000" preserveAspectRatio="xMidYMid meet" color-interpolation-filters="sRGB" style="margin: auto;"> <rect data-v-0dd9719b="" x="0" y="0" width="100%" height="100%" fill="#ffffff" fill-opacity="1" class="background"></rect> <rect data-v-0dd9719b="" x="0" y="0" width="100%" height="100%" fill="url(#watermark)" fill-opacity="1" class="watermarklayer"></rect> <g data-v-0dd9719b="" fill="#000000" class="icon-text-wrapper icon-svg-group iconsvg" transform="translate(72.59500122070312,91.06945419311523)"><g class="iconsvg-imagesvg" transform="translate(0,3.9305458068847656)"><g><rect fill="#000000" fill-opacity="0" stroke-width="2" x="0" y="0" width="60" height="60" class="image-rect"></rect> <svg filter="url(#colors7900541588)" x="0" y="0" width="60" height="60" filtersec="colorsf9100246120" class="image-svg-svg primary" style="overflow: visible;"><svg fill="#000000" xmlns="http://www.w3.org/2000/svg" xmlns:xlink="http://www.w3.org/1999/xlink" xmlns:serif="http://www.serif.com/" viewBox="0 0 100 100" version="1.1" xml:space="preserve" style="" x="0px" y="0px" fill-rule="evenodd" clip-rule="evenodd" stroke-linejoin="round" stroke-miterlimit="1.41421"><rect serif:id="Page 81" x="0" y="0" width="100" height="100" style="" fill="none"></rect><path d="M66.048,73.394l28.555,21.606l-44.603,-0.398l-23.394,-28.554l-21.606,28.555l0.398,-44.603l28.554,-23.394l-28.555,-21.606l44.603,0.398l23.394,28.554l21.606,-28.555l-0.398,44.603l-28.554,23.394Zm-16.048,-34.644l-11.25,11.25l11.25,11.25l11.25,-11.25l-11.25,-11.25Z"></path></svg></svg> <defs><filter id="colors7900541588"><feColorMatrix type="matrix" values="0 0 0 0 0  0 0 0 0 0  0 0 0 0 0  0 0 0 1 0" class="icon-fecolormatrix"></feColorMatrix></filter> <filter id="colorsf9100246120"><feColorMatrix type="matrix" values="0 0 0 0 0.99609375  0 0 0 0 0.99609375  0 0 0 0 0.99609375  0 0 0 1 0" class="icon-fecolormatrix"></feColorMatrix></filter> <filter id="colorsb9871957144"><feColorMatrix type="matrix" values="0 0 0 0 0  0 0 0 0 0  0 0 0 0 0  0 0 0 1 0" class="icon-fecolormatrix"></feColorMatrix></filter></defs></g></g> <g transform="translate(67,0)"><g data-gra="path-name" fill-rule="" class="tp-name iconsvg-namesvg" transform="translate(0,0)"><g transform="scale(1)"><g><path d="M1.14-12.08L4.12-12.08C4.12-13.71 4.91-15.16 7.07-15.16 8.85-15.16 9.97-14.35 9.97-12.44 9.97-7.43 0.89-8.52 0.89 0L13.1 0 13.1-3.1 4.88-3.1 4.88-3.15C6.21-6.54 13.1-6.67 13.1-12.69 13.1-16 11.07-18.06 7.07-18.06 2.85-18.06 1.14-15.59 1.14-12.08ZM22.77-3.13L22.77 0 26 0 26-3.13 28.24-3.13 28.24-6.03 26-6.03 26-17.81 23.15-17.81 14.37-5.75 14.37-3.13ZM22.67-12.95L22.77-12.95 22.77-6.03 17.73-6.03 17.73-6.11ZM29.77-4.99C29.77-2.16 31.5 0.25 35.44 0.25 39.36 0.25 42.64-1.25 42.64-9.41 42.64-15.37 40.55-18.06 35.97-18.06 32.69-18.06 29.64-16.28 29.64-12.16 29.64-8.65 31.7-6.41 35.31-6.41 37.3-6.41 38.77-7.12 39.64-8.37 39.46-3.99 38.16-2.39 35.46-2.39 33.71-2.39 32.56-3.46 32.46-4.99ZM39.56-11.86C39.59-9.92 38.08-8.68 35.92-8.68 33.5-8.68 32.44-10.13 32.44-12.16 32.44-14.3 33.94-15.44 35.95-15.44 38.36-15.44 39.25-14.25 39.56-11.86ZM52.59 0L56.02 0 56.02-7.68 65.15-7.68 65.15 0 68.59 0 68.59-17.81 65.15-17.81 65.15-10.94 56.02-10.94 56.02-17.81 52.59-17.81ZM71.23-8.9C71.23-3.05 75.33 0.25 80.47 0.25 85.73 0.25 89.8-3.05 89.8-8.9 89.8-15.04 85.73-18.06 80.47-18.06 75.33-18.06 71.23-14.78 71.23-8.9ZM74.69-8.9C74.69-12.87 77.21-14.83 80.47-14.83 83.83-14.83 86.37-12.87 86.37-8.9 86.37-4.94 83.83-3 80.47-3 77.21-3 74.69-4.94 74.69-8.9ZM92.48 0L95.81 0 95.81-12.11 95.94-12.11 104.51 0 107.87 0 107.87-17.81 104.59-17.81 104.59-5.55 104.46-5.55 95.86-17.81 92.48-17.81ZM125.62-2.67L125.5 0 128.7 0C128.7-0.13 128.7-9.36 128.7-9.49L119.24-9.49 119.24-7 125.55-7C125.29-4.83 123.08-2.59 119.85-2.59 115.91-2.59 113.92-5.34 113.92-8.9 113.92-12.36 116.31-15.04 119.87-15.04 122.6-15.04 124.35-13.76 125.01-11.73L128.65-11.73C127.79-16.18 124.71-18.06 119.85-18.06 114.18-18.06 110.59-14.5 110.59-8.9 110.59-3.33 113.82 0.25 119.49 0.25 123.54 0.25 125.09-1.7 125.5-2.67Z" transform="translate(-0.8899999856948853, 18.059999465942383)"></path></g> <!----> <!----> <!----> <!----> <!----> <!----> <g data-gra="path-name-1" fill="#000000" transform="translate(0,21.309999465942383)"><g transform="scale(1.02379)"><path d="M8.81-30.36L2.95-30.36 2.95 0 8.81 0 8.81-8.55 13.27-13.1 23.64 0 31.32 0 17.39-17.09 30.67-30.36 22.99-30.36 8.81-15.57ZM29.8-15.18C29.8-5.21 36.78 0.43 45.55 0.43 54.52 0.43 61.46-5.21 61.46-15.18 61.46-25.64 54.52-30.8 45.55-30.8 36.78-30.8 29.8-25.2 29.8-15.18ZM35.7-15.18C35.7-21.95 39.99-25.29 45.55-25.29 51.27-25.29 55.61-21.95 55.61-15.18 55.61-8.42 51.27-5.12 45.55-5.12 39.99-5.12 35.7-8.42 35.7-15.18ZM66.02 0L71.7 0 71.7-20.65 71.92-20.65 86.54 0 92.26 0 92.26-30.36 86.67-30.36 86.67-9.46 86.45-9.46 71.79-30.36 66.02-30.36ZM122.54-4.55L122.32 0 127.79 0C127.79-0.22 127.79-15.96 127.79-16.18L111.65-16.18 111.65-11.93 122.41-11.93C121.98-8.24 118.2-4.42 112.69-4.42 105.97-4.42 102.59-9.11 102.59-15.18 102.59-21.08 106.66-25.64 112.74-25.64 117.38-25.64 120.37-23.47 121.5-20L127.7-20C126.23-27.59 120.98-30.8 112.69-30.8 103.02-30.8 96.9-24.72 96.9-15.18 96.9-5.68 102.41 0.43 112.09 0.43 118.98 0.43 121.63-2.91 122.32-4.55Z" transform="translate(-2.950000047683716, 30.799999237060547)"></path></g></g></g></g> <g data-gra="path-slogan" fill-rule="" class="tp-slogan iconsvg-slogansvg" fill="#f6d33c" transform="translate(5,59.28296661376953)"><rect x="0" height="1" y="3.7899999618530273" width="33.07499885559082"></rect> <rect height="1" y="3.7899999618530273" width="33.07499885559082" x="84.73499870300293"></rect> <g transform="translate(36.07499885559082,0)"><g transform="scale(1)"><path d="M0.89-8.58L2.06-8.58L2.06-1.03L6.42-1.03L6.42 0L0.89 0L0.89-8.58ZM7.73-8.58L8.91-8.58L8.91 0L7.73 0L7.73-8.58ZM19.13-8.58L19.13 0L18 0L18-5.06Q18-5.77 18-7.22L18-7.22L15.56 0L14.39 0L12-7.22L11.95-7.22Q11.95-6.70 12-5.67L12-5.67Q12-5.16 12-5.06L12-5.06L12 0L10.83 0L10.83-8.58L12.52-8.58L15-1.31L17.44-8.58L19.13-8.58ZM21-8.58L22.17-8.58L22.17 0L21 0L21-8.58ZM26.34-7.59L23.44-7.59L23.44-8.58L30.38-8.58L30.38-7.59L27.47-7.59L27.47 0L26.34 0L26.34-7.59ZM32.72-1.03L37.88-1.03L37.88 0L31.55 0L31.55-8.58L37.78-8.58L37.78-7.59L32.72-7.59L32.72-4.92L37.41-4.92L37.41-3.89L32.72-3.89L32.72-1.03ZM42.89 0L39.42 0L39.42-8.58L42.94-8.58Q46.41-8.39 46.55-4.41L46.55-4.41Q46.36-0.09 42.89 0L42.89 0ZM42.75-7.64L40.59-7.64L40.59-0.98L42.84-0.98Q45.28-1.13 45.38-4.31L45.38-4.31Q45.33-7.55 42.75-7.64L42.75-7.64Z" transform="translate(-0.890625, 8.578125)"></path></g></g></g></g></g><defs v-gra="od"></defs></svg>